<?xml version="1.0" encoding="utf-8"?>
<!-- Generator: Adobe Illustrator 24.1.1, SVG Export Plug-In . SVG Version: 6.00 Build 0)  -->
<svg version="1.1" id="Layer_1" xmlns="http://www.w3.org/2000/svg" xmlns:xlink="http://www.w3.org/1999/xlink" x="0px" y="0px"
	 viewBox="0 0 100 100" style="enable-background:new 0 0 100 100;" xml:space="preserve">
<style type="text/css">
	.st0{fill:#FFFFFF;}
	.st1{fill:#FFFFFF;stroke:#000000;stroke-width:2;stroke-miterlimit:10;}
	.st2{stroke:#FFFFFF;stroke-miterlimit:10;}
	.st3{fill:none;stroke:#FFFFFF;stroke-width:0.5;stroke-miterlimit:10;}
	.st4{fill:#FFFFFF;stroke:#000000;stroke-width:0.5;stroke-miterlimit:10;}
	.st5{stroke:#000000;stroke-width:0.7;stroke-miterlimit:10;}
</style>
<g>
	<g>
		<path class="st0" d="M21.64,94.71c1.93,0,1.93-3,0-3C19.71,91.71,19.7,94.71,21.64,94.71L21.64,94.71z"/>
	</g>
</g>
<g>
	<g>
		<path class="st0" d="M21.13,94.54c1.93,0,1.93-3,0-3C19.2,91.54,19.19,94.54,21.13,94.54L21.13,94.54z"/>
	</g>
</g>
<g>
	<g>
		<path class="st0" d="M14.24,95.87c0.63,0.32,1.18,0.76,1.79,1.11c0.34,0.19,0.77,0.26,1.16,0.15c0.2-0.05,0.37-0.14,0.51-0.27
			c0.16-0.11,0.29-0.25,0.39-0.42c0.18-0.35,0.28-0.77,0.15-1.16c-0.12-0.37-0.34-0.7-0.69-0.9c-0.61-0.34-1.16-0.79-1.79-1.11
			c-0.17-0.11-0.36-0.17-0.56-0.18c-0.2-0.04-0.4-0.04-0.6,0.03c-0.2,0.05-0.37,0.14-0.51,0.27c-0.16,0.11-0.29,0.25-0.39,0.42
			c-0.18,0.35-0.28,0.77-0.15,1.16C13.67,95.33,13.9,95.69,14.24,95.87L14.24,95.87z"/>
	</g>
</g>
<g>
	<g>
		<path class="st0" d="M13.7,93.46c0.98,1.44,1.88,2.8,3.51,3.61c0.77,0.38,1.41,0.72,2.29,0.75c1.05,0.03,2.09,0.11,3.14,0.21
			c4.22,0.38,8.46,1.06,12.7,1.11c1.93,0.02,1.93-2.98,0-3c-3.72-0.04-7.44-0.59-11.13-0.96c-0.91-0.09-1.83-0.18-2.74-0.25
			c-0.61-0.05-1.59,0.02-2.04-0.11c-1.51-0.42-2.32-1.69-3.13-2.88C15.21,90.36,12.61,91.86,13.7,93.46L13.7,93.46z"/>
	</g>
</g>
<g>
	<path class="st1" d="M23.9,67.01c-1.48-1.12-2.59-2.19-3.37-3.01c-0.94-0.99-1.57-1.79-2.53-3.01c-0.82-1.04-1.45-1.85-2.17-3.01
		c-0.76-1.23-1.24-2.22-1.33-2.41c-0.55-1.16-2.07-4.47-1.93-8.8c0.04-1.13,0.17-1.93,0.36-3.01c0.14-0.8,0.89-5.15,2.89-9.16
		c0.22-0.44,0.56-1.08,0.84-2.05c0.18-0.6,0.27-1.11,0.48-3.37c0.23-2.48,0.22-2.99,0.48-4.1c0.15-0.61,0.23-0.81,0.6-1.93
		c1.45-4.41,1.25-4.92,2.17-6.51c0.73-1.26,1.52-2.1,2.05-2.65c0.82-0.85,1.81-1.89,3.37-2.65c0.57-0.27,1.67-0.55,3.86-1.08
		c1.59-0.39,2.38-0.58,3.13-0.72c1.49-0.27,3.14-0.58,5.06-0.48c1.7,0.09,1.8,0.4,7.11,1.57c1.16,0.25,1.74,0.38,2.29,0.48
		c3.44,0.62,6.12,0.61,6.75,0.6c3.42-0.04,3.48-0.6,6.51-0.48c1.05,0.04,2.55,0.11,4.46,0.6c1.09,0.28,3.65,1.05,6.39,3.01
		c0.98,0.71,1.64,1.32,2.17,1.81c1.63,1.52,3.66,3.42,4.7,6.39c0.3,0.86,0.12,0.67,0.6,2.29c0.39,1.29,0.86,2.62,1.81,4.82
		c1.12,2.61,1.37,2.88,1.81,3.98c0.88,2.19,1,4.9,1.2,10.24c0.16,4.22-0.01,5.59-0.24,6.75c-0.09,0.46-0.45,2.13-1.33,4.22
		c-0.77,1.83-1.6,3.8-3.37,5.66c-2.03,2.13-3.46,2.18-4.22,4.22c-0.29,0.78-0.28,1.31-0.84,2.29c-0.69,1.22-1.61,2-2.17,2.41
		c-0.27,0.2-0.71,0.49-1.45,0.84c-2.24,1.07-3.56,0.9-6.14,1.69c-0.55,0.17-1.21,0.43-2.53,0.96c-4.23,1.7-4.64,2.26-6.27,2.77
		c-4.12,1.3-8.08-0.21-8.07-0.24c0-0.03,4.69,0.56,4.7,0.48c0.01-0.08-4.96-1.48-9.4-1.08c-0.61,0.05-2.29,0.24-4.46-0.12
		c-1.12-0.19-1.76-0.42-2.05-0.48c-4.14-0.94-11.44,15.58-13.49,15.06C21.29,89.51,21.09,84.64,23.9,67.01z"/>
	<g>
		<g>
			<path class="st0" d="M46.53,79.12c1.93,0,1.93-3,0-3C44.6,76.12,44.6,79.12,46.53,79.12L46.53,79.12z"/>
		</g>
	</g>
	<g>
		<g>
			<path class="st0" d="M45.43,78.46c0.17,0.31,0.45,0.51,0.74,0.68c0.06,0.04,0.11,0.08,0.17,0.12c0.16,0.11,0.37,0.17,0.56,0.23
				c-0.12-0.05-0.24-0.1-0.36-0.15c0.18,0.08,0.35,0.16,0.54,0.23c-0.12-0.05-0.24-0.1-0.36-0.15c0.13,0.06,0.25,0.14,0.37,0.21
				c0.21,0.12,0.43,0.21,0.66,0.3c-0.12-0.05-0.24-0.1-0.36-0.15c0.21,0.09,0.43,0.19,0.64,0.28c-0.12-0.05-0.24-0.1-0.36-0.15
				c0.42,0.21,0.8,0.33,1.27,0.34c0.75,0.02,1.38-0.59,1.47-1.3c0.1-0.72-0.35-1.46-1.07-1.65c-0.05-0.01-0.11-0.03-0.16-0.04
				c0.12,0.05,0.24,0.1,0.36,0.15c-0.02-0.01-0.03-0.02-0.05-0.02c0.1,0.08,0.2,0.16,0.3,0.23c-0.19-0.15-0.35-0.33-0.58-0.43
				c-0.25-0.11-0.49-0.18-0.74-0.27c0.12,0.05,0.24,0.1,0.36,0.15c-0.46-0.2-0.88-0.45-1.35-0.62c0.12,0.05,0.24,0.1,0.36,0.15
				c-0.2-0.09-0.39-0.2-0.61-0.26c0.12,0.05,0.24,0.1,0.36,0.15c-0.15-0.08-0.27-0.16-0.43-0.22c-0.3-0.13-0.45-0.16-0.8-0.19
				c-0.35-0.04-0.68-0.02-1.03,0.05c0.13-0.02,0.27-0.04,0.4-0.05c-0.41,0.05-0.82,0.05-1.17,0.32c-0.32,0.25-0.58,0.49-0.69,0.9
				c-0.1,0.36-0.05,0.84,0.15,1.16c0.21,0.32,0.51,0.6,0.9,0.69c0.36,0.08,0.84,0.09,1.16-0.15c0.04-0.03,0.08-0.05,0.12-0.07
				c-0.12,0.05-0.24,0.1-0.36,0.15c0.03-0.01,0.06-0.02,0.09-0.03c-0.13,0.02-0.27,0.04-0.4,0.05c0.23-0.03,0.46-0.05,0.69-0.08
				c-0.13,0.02-0.27,0.04-0.4,0.05c0.18-0.01,0.35,0,0.53,0.02c-0.13-0.02-0.27-0.04-0.4-0.05c0.08,0.01,0.15,0.03,0.22,0.07
				c-0.12-0.05-0.24-0.1-0.36-0.15c0.24,0.11,0.44,0.27,0.71,0.32c-0.12-0.05-0.24-0.1-0.36-0.15c0.22,0.12,0.45,0.21,0.68,0.3
				c-0.12-0.05-0.24-0.1-0.36-0.15c0.21,0.09,0.42,0.2,0.62,0.31c0.3,0.16,0.62,0.25,0.93,0.37c-0.12-0.05-0.24-0.1-0.36-0.15
				c0.05,0.02,0.1,0.04,0.15,0.07c-0.1-0.08-0.2-0.16-0.3-0.23c0.15,0.14,0.22,0.24,0.43,0.36c0.18,0.1,0.38,0.16,0.57,0.22
				c0.13-0.98,0.27-1.96,0.4-2.95c-0.04,0-0.09,0-0.13,0c0.13,0.02,0.27,0.04,0.4,0.05c-0.1-0.02-0.19-0.05-0.29-0.08
				c0.12,0.05,0.24,0.1,0.36,0.15c-0.18-0.1-0.38-0.17-0.57-0.25c0.12,0.05,0.24,0.1,0.36,0.15c-0.21-0.1-0.42-0.19-0.63-0.27
				c0.12,0.05,0.24,0.1,0.36,0.15c-0.11-0.05-0.22-0.11-0.32-0.18c-0.21-0.13-0.4-0.21-0.64-0.31c0.12,0.05,0.24,0.1,0.36,0.15
				c-0.21-0.1-0.43-0.18-0.64-0.27c0.12,0.05,0.24,0.1,0.36,0.15c-0.13-0.07-0.26-0.16-0.38-0.24c0.1,0.08,0.2,0.16,0.3,0.23
				c-0.01-0.01-0.02-0.02-0.02-0.02c0.08,0.1,0.16,0.2,0.23,0.3c0-0.01-0.01-0.02-0.01-0.02c-0.18-0.33-0.54-0.59-0.9-0.69
				c-0.36-0.1-0.84-0.05-1.16,0.15C45.28,76.85,45.01,77.73,45.43,78.46L45.43,78.46z"/>
		</g>
	</g>
	<g>
		<g>
			<path class="st0" d="M49.14,78.68c0-0.04-0.01-0.08-0.01-0.13c-0.02,0.13-0.04,0.27-0.05,0.4c0-0.01,0-0.01,0-0.02
				c-0.05,0.12-0.1,0.24-0.15,0.36c0-0.01,0.01-0.02,0.01-0.02c-0.18,0.18-0.36,0.36-0.54,0.54c0.01,0,0.01-0.01,0.02-0.01
				c-0.12,0.05-0.24,0.1-0.36,0.15c0.01,0,0.01,0,0.02-0.01c-0.13,0.02-0.27,0.04-0.4,0.05c0.04,0,0.07,0,0.1,0
				c-0.13-0.02-0.27-0.04-0.4-0.05c0.01,0,0.02,0,0.03,0.01c-0.12-0.05-0.24-0.1-0.36-0.15c0.09,0.05,0.15,0.08,0.25,0.12
				c0.11,0.05,0.19,0.08,0.3,0.1c0.1,0.02,0.2,0.06,0.3,0.1c-0.12-0.05-0.24-0.1-0.36-0.15c0.21,0.1,0.42,0.18,0.63,0.27
				c-0.12-0.05-0.24-0.1-0.36-0.15c0.19,0.09,0.38,0.19,0.59,0.24c0.04,0.01,0.07,0.03,0.11,0.04c0.16,0.05,0.35,0.06,0.52,0.07
				c-0.13-0.02-0.27-0.04-0.4-0.05c0.01,0,0.02,0,0.03,0.01c-0.12-0.05-0.24-0.1-0.36-0.15c0.14,0.08,0.3,0.15,0.45,0.19
				c0.24,0.06,0.31,0.04,0.49,0.05c-0.13-0.02-0.27-0.04-0.4-0.05c0.38,0.07,0.81,0.16,1.2,0.04c0.12-0.05,0.24-0.1,0.36-0.15
				c0.1-0.08,0.2-0.16,0.3-0.23c0.08-0.1,0.16-0.2,0.23-0.3c0.11-0.17,0.17-0.36,0.18-0.56c0.04-0.13,0.04-0.27,0-0.4
				c0-0.14-0.03-0.26-0.1-0.38c-0.04-0.13-0.1-0.24-0.19-0.33c-0.11-0.16-0.25-0.29-0.42-0.39c-0.33-0.23-0.75-0.31-1.14-0.34
				c0.13,0.02,0.27,0.04,0.4,0.05c-0.21-0.05-0.41-0.08-0.63-0.11c0.13,0.02,0.27,0.04,0.4,0.05c-0.02,0-0.04-0.01-0.06-0.02
				c0.22,0.13,0.44,0.26,0.66,0.39c-0.01,0-0.01-0.01-0.02-0.01c0.08,0.1,0.16,0.2,0.23,0.3c0-0.01-0.01-0.01-0.01-0.02
				c0.05,0.12,0.1,0.24,0.15,0.36c0-0.01,0-0.02,0-0.02c0,0.27,0,0.53,0,0.8c0-0.01,0-0.01,0-0.02c-0.13,0.22-0.26,0.44-0.39,0.66
				c0,0,0.01-0.01,0.01-0.01c-0.1,0.08-0.2,0.16-0.3,0.23c0.01,0,0.01-0.01,0.02-0.01c-0.12,0.05-0.24,0.1-0.36,0.15
				c0.01,0,0.01,0,0.02,0c-0.13,0.02-0.27,0.04-0.4,0.05c0.08-0.01,0.16-0.01,0.25,0c-0.13-0.02-0.27-0.04-0.4-0.05
				c0.18,0.03,0.37,0.07,0.56,0.07c0.38,0.01,0.8-0.17,1.06-0.44c0.15-0.14,0.25-0.3,0.31-0.48c0.09-0.18,0.14-0.37,0.13-0.58
				c-0.02-0.39-0.14-0.79-0.44-1.06c-0.3-0.27-0.65-0.43-1.06-0.44c-0.02,0-0.04,0-0.06,0c0.13,0.02,0.27,0.04,0.4,0.05
				c-0.21-0.04-0.43-0.07-0.65-0.07c-0.02,0-0.05,0-0.07,0c-0.11,0.01-0.31,0.03-0.42,0.06c-0.11,0.03-0.28,0.1-0.38,0.16
				c-0.12,0.06-0.23,0.15-0.33,0.25c-0.05,0.05-0.09,0.1-0.12,0.16c-0.09,0.09-0.16,0.2-0.19,0.33c-0.1,0.23-0.07,0.14-0.11,0.4
				c-0.04,0.13-0.04,0.27,0,0.4c0.01,0.07,0.02,0.15,0.03,0.22c0.03,0.1,0.11,0.29,0.16,0.38c0.21,0.34,0.54,0.58,0.91,0.7
				c0.15,0.05,0.33,0.05,0.48,0.07c-0.13-0.02-0.27-0.04-0.4-0.05c0.05,0.01,0.09,0.02,0.14,0.03c0.18,0.05,0.36,0.07,0.54,0.08
				c-0.13-0.02-0.27-0.04-0.4-0.05c0.07,0.01,0.14,0.05,0.21,0.07c-0.12-0.05-0.24-0.1-0.36-0.15c0.03,0.02,0.06,0.03,0.09,0.05
				c0.12-0.91,0.24-1.83,0.36-2.74c-0.01,0-0.01,0-0.02,0.01c0.13-0.02,0.27-0.04,0.4-0.05c-0.07,0.01-0.15,0-0.22-0.01
				c0.13,0.02,0.27,0.04,0.4,0.05c-0.05-0.01-0.1-0.02-0.15-0.03c-0.16-0.04-0.34-0.05-0.51-0.06c0.13,0.02,0.27,0.04,0.4,0.05
				c-0.01,0-0.02,0-0.03,0c0.12,0.05,0.24,0.1,0.36,0.15c-0.14-0.07-0.28-0.15-0.44-0.19c-0.15-0.04-0.31-0.05-0.47-0.06
				c0.13,0.02,0.27,0.04,0.4,0.05c-0.05-0.01-0.09-0.03-0.14-0.04c-0.05-0.01-0.1-0.02-0.15-0.04c0.12,0.05,0.24,0.1,0.36,0.15
				c-0.19-0.09-0.39-0.17-0.59-0.25c0.12,0.05,0.24,0.1,0.36,0.15c-0.2-0.1-0.41-0.19-0.62-0.27c-0.1-0.04-0.21-0.05-0.31-0.08
				c0.12,0.05,0.24,0.1,0.36,0.15c-0.15-0.08-0.3-0.16-0.47-0.21c-0.27-0.08-0.65-0.07-0.91,0c-0.52,0.14-0.95,0.57-1.09,1.09
				c-0.06,0.21-0.06,0.36-0.05,0.54c0.02,0.4,0.15,0.77,0.44,1.06c0.14,0.15,0.3,0.25,0.48,0.31c0.18,0.09,0.37,0.14,0.58,0.13
				c0.39-0.02,0.79-0.14,1.06-0.44C48.96,79.46,49.16,79.08,49.14,78.68L49.14,78.68z"/>
		</g>
	</g>
	<g>
		<g>
			<path class="st0" d="M52.36,75.9c1.93,0,1.93-3,0-3C50.43,72.9,50.43,75.9,52.36,75.9L52.36,75.9z"/>
		</g>
	</g>
	<g>
		<g>
			<path class="st0" d="M52.09,75.71c1.93,0,1.93-3,0-3C50.15,72.71,50.15,75.71,52.09,75.71L52.09,75.71z"/>
		</g>
	</g>
	<g>
		<g>
			<path class="st0" d="M52.02,75.76c1.93,0,1.93-3,0-3C50.09,72.76,50.09,75.76,52.02,75.76L52.02,75.76z"/>
		</g>
	</g>
	<g>
		<g>
			<path class="st0" d="M51.67,72.36c-0.19-0.1-0.37-0.19-0.57-0.27c0.35,0.35,0.7,0.7,1.05,1.05c0-0.01-0.01-0.02-0.01-0.03
				c-0.35,0.62-0.7,1.23-1.05,1.85c0.01,0,0.01,0,0.02-0.01c-0.27,0-0.53,0-0.8,0c0.01,0,0.02,0,0.02,0.01
				c-0.12-0.05-0.24-0.1-0.36-0.15c0.01,0,0.02,0.01,0.03,0.01c-0.1-0.08-0.2-0.16-0.3-0.23c0.04,0.03,0.07,0.07,0.1,0.11
				c-0.08-0.1-0.16-0.2-0.23-0.3c0.37,0.49,0.83,1.03,1.47,1.14c-0.12-0.05-0.24-0.1-0.36-0.15c0.18,0.1,0.38,0.15,0.57,0.22
				c-0.12-0.05-0.24-0.1-0.36-0.15c0.37,0.16,0.58,0.25,1,0.25c0.1,0,0.21-0.02,0.32-0.01c-0.13-0.02-0.27-0.04-0.4-0.05
				c0.01,0,0.02,0.01,0.03,0.01c-0.3-0.23-0.6-0.46-0.9-0.69c0,0.01,0.01,0.02,0.01,0.03c-0.05-0.39-0.1-0.77-0.15-1.16
				c0,0.01-0.01,0.02-0.01,0.03c0.23-0.3,0.46-0.6,0.69-0.9c-0.01,0.01-0.02,0.01-0.03,0.02c0.12-0.05,0.24-0.1,0.36-0.15
				c-0.02,0.01-0.05,0.02-0.08,0.02c0.13-0.02,0.27-0.04,0.4-0.05c-0.05,0-0.1,0-0.15,0.01c0.13,0.02,0.27,0.04,0.4,0.05
				c-0.02,0-0.04-0.01-0.05-0.01c0.12,0.05,0.24,0.1,0.36,0.15c-0.05-0.02-0.09-0.05-0.13-0.07c0.1,0.08,0.2,0.16,0.3,0.23
				c-0.13-0.13-0.28-0.25-0.44-0.35c0.1,0.08,0.2,0.16,0.3,0.23c-0.22-0.19-0.47-0.37-0.77-0.43c0.12,0.05,0.24,0.1,0.36,0.15
				c-0.01,0-0.02-0.01-0.03-0.01c0.23,0.3,0.46,0.6,0.69,0.9c0-0.01-0.01-0.02-0.01-0.02c-0.23,0.56-0.46,1.13-0.69,1.69
				c0.01-0.01,0.02-0.01,0.03-0.02c-0.12,0.05-0.24,0.1-0.36,0.15c0.01,0,0.02-0.01,0.04-0.01c-0.13,0.02-0.27,0.04-0.4,0.05
				c0.03,0,0.06,0,0.08,0c-0.13-0.02-0.27-0.04-0.4-0.05c0.04,0.01,0.07,0.01,0.11,0.03c-0.22-0.13-0.44-0.26-0.66-0.39
				c0.01,0.01,0.02,0.01,0.03,0.02c-0.08-0.1-0.16-0.2-0.23-0.3c0.01,0.01,0.01,0.02,0.02,0.03c-0.05-0.12-0.1-0.24-0.15-0.36
				c0.01,0.02,0.02,0.05,0.02,0.07c-0.02-0.13-0.04-0.27-0.05-0.4c0,0.02,0,0.03,0.01,0.05c0.02-0.13,0.04-0.27,0.05-0.4
				c0,0.02-0.01,0.03-0.01,0.05c0.13-0.22,0.26-0.44,0.39-0.66c-0.01,0.01-0.02,0.02-0.03,0.03c0.22-0.13,0.44-0.26,0.66-0.39
				c-0.01,0-0.03,0.01-0.04,0.01c0.13-0.02,0.27-0.04,0.4-0.05c-0.01,0-0.03,0-0.04,0c0.13,0.02,0.27,0.04,0.4,0.05
				c-0.08-0.01-0.14-0.04-0.21-0.07c0.12,0.05,0.24,0.1,0.36,0.15c-0.19-0.09-0.38-0.18-0.58-0.23c0.12,0.05,0.24,0.1,0.36,0.15
				c-0.18-0.09-0.36-0.15-0.54-0.22c0.12,0.05,0.24,0.1,0.36,0.15c-0.24-0.11-0.49-0.2-0.74-0.3c0.12,0.05,0.24,0.1,0.36,0.15
				c-0.07-0.03-0.14-0.07-0.22-0.1c-0.13-0.06-0.28-0.14-0.41-0.17c-0.15-0.04-0.32-0.05-0.48-0.06c0.13,0.02,0.27,0.04,0.4,0.05
				c-0.23-0.07-0.41-0.1-0.67-0.14c0,1,0,2,0,3c0.04,0,0.09,0,0.13,0.01c-0.13-0.02-0.27-0.04-0.4-0.05
				c0.08,0.02,0.16,0.05,0.24,0.08c-0.12-0.05-0.24-0.1-0.36-0.15c0.26,0.12,0.52,0.21,0.79,0.3c-0.12-0.05-0.24-0.1-0.36-0.15
				c0.01,0.01,0.02,0.01,0.03,0.02c-0.1-0.08-0.2-0.16-0.3-0.23c0.01,0.01,0.02,0.01,0.02,0.02c-0.13-0.22-0.26-0.44-0.39-0.66
				c0,0.01,0.01,0.02,0.01,0.03c0.23-0.56,0.46-1.13,0.69-1.69c-0.01,0.01-0.03,0.01-0.04,0.02c0.25-0.07,0.5-0.14,0.76-0.2
				c-0.16,0.02-0.34,0-0.5,0c0.13,0.02,0.27,0.04,0.4,0.05c-0.11-0.02-0.21-0.07-0.31-0.1c-0.21-0.07-0.43-0.08-0.65-0.11
				c0.13,0.02,0.27,0.04,0.4,0.05c-0.17-0.03-0.33-0.08-0.49-0.15c0.12,0.05,0.24,0.1,0.36,0.15c-0.24-0.11-0.48-0.22-0.73-0.32
				c-0.24-0.1-0.48-0.12-0.74-0.14c0.13,0.02,0.27,0.04,0.4,0.05c-0.07-0.02-0.15-0.03-0.22-0.05c0.12,0.05,0.24,0.1,0.36,0.15
				c-0.01,0-0.02-0.01-0.02-0.01c0.18,0.18,0.36,0.36,0.54,0.54c0-0.01-0.01-0.02-0.01-0.02c0.07,0.25,0.14,0.5,0.2,0.76
				c0-0.01,0-0.02,0-0.03c0.04-0.78-0.72-1.53-1.5-1.5c-0.85,0.04-1.46,0.66-1.5,1.5c-0.04,0.68,0.48,1.35,1.14,1.52
				c0.24,0.06,0.48,0.11,0.73,0.11c-0.13-0.02-0.27-0.04-0.4-0.05c0.08,0.02,0.15,0.05,0.22,0.08c-0.12-0.05-0.24-0.1-0.36-0.15
				c0.28,0.12,0.55,0.25,0.83,0.36c0.28,0.11,0.57,0.13,0.86,0.17c-0.13-0.02-0.27-0.04-0.4-0.05c0.11,0.02,0.21,0.06,0.32,0.1
				c0.21,0.08,0.44,0.11,0.67,0.11c0.1,0,0.2,0,0.3,0c0.33,0,0.62-0.08,0.92-0.23c0.1-0.08,0.2-0.16,0.3-0.23
				c0.15-0.14,0.25-0.3,0.31-0.48c0.12-0.28,0.19-0.68,0.08-0.98c-0.11-0.28-0.19-0.5-0.42-0.71c-0.21-0.19-0.42-0.31-0.7-0.4
				c-0.11-0.04-0.21-0.06-0.32-0.1c0.12,0.05,0.24,0.1,0.36,0.15c-0.42-0.19-0.77-0.34-1.25-0.34c-0.78-0.01-1.54,0.7-1.5,1.5
				c0.02,0.39,0.14,0.79,0.44,1.06c0.1,0.08,0.2,0.16,0.3,0.23c0.23,0.14,0.49,0.2,0.76,0.2c0.02,0,0.04,0,0.05,0.01
				c-0.13-0.02-0.27-0.04-0.4-0.05c0.23,0.07,0.41,0.11,0.67,0.14c-0.13-0.02-0.27-0.04-0.4-0.05c0.02,0,0.03,0.01,0.05,0.01
				c-0.12-0.05-0.24-0.1-0.36-0.15c0.28,0.15,0.58,0.26,0.87,0.37c-0.12-0.05-0.24-0.1-0.36-0.15c0.2,0.09,0.4,0.17,0.61,0.25
				c-0.12-0.05-0.24-0.1-0.36-0.15c0.17,0.08,0.34,0.14,0.51,0.2c-0.12-0.05-0.24-0.1-0.36-0.15c0.35,0.18,0.72,0.33,1.12,0.32
				c0.85-0.02,1.62-0.73,1.58-1.61c-0.03-0.73-0.44-1.37-1.17-1.59c-0.46-0.14-1-0.1-1.41,0.15c-0.28,0.17-0.49,0.42-0.61,0.72
				c-0.12,0.29-0.18,0.67-0.08,0.98c0.19,0.54,0.56,0.97,1.14,1.1c-0.12-0.05-0.24-0.1-0.36-0.15c0.01,0.01,0.02,0.01,0.03,0.02
				c-0.1-0.08-0.2-0.16-0.3-0.23c0.13,0.11,0.26,0.21,0.4,0.3c-0.1-0.08-0.2-0.16-0.3-0.23c0.34,0.37,0.84,0.6,1.34,0.59
				c0.18,0,0.38-0.02,0.55-0.06c0.37-0.09,0.78-0.39,0.96-0.72c0.23-0.43,0.28-0.91,0.09-1.37c-0.18-0.44-0.53-0.76-0.98-0.9
				c-0.29-0.09-0.55-0.04-0.83-0.06c0.13,0.02,0.27,0.04,0.4,0.05c-0.04,0-0.07-0.01-0.1-0.02c0.12,0.05,0.24,0.1,0.36,0.15
				c-0.18-0.08-0.35-0.17-0.55-0.2c0.12,0.05,0.24,0.1,0.36,0.15c-0.17-0.08-0.34-0.17-0.52-0.2c0.12,0.05,0.24,0.1,0.36,0.15
				c-0.04-0.02-0.07-0.03-0.1-0.06c0.1,0.08,0.2,0.16,0.3,0.23c-0.11-0.08-0.23-0.18-0.31-0.29c0.08,0.1,0.16,0.2,0.23,0.3
				c-0.13-0.17-0.24-0.35-0.39-0.49c-0.41-0.4-0.98-0.55-1.54-0.41c-0.35,0.09-0.73,0.37-0.9,0.69c-0.18,0.33-0.3,0.79-0.15,1.16
				c0.13,0.34,0.26,0.58,0.55,0.81c0.17,0.13,0.35,0.22,0.56,0.29c-0.12-0.05-0.24-0.1-0.36-0.15c0.05,0.03,0.1,0.07,0.16,0.1
				c0.35,0.19,0.77,0.26,1.16,0.15c0.35-0.1,0.73-0.36,0.9-0.69C52.58,73.72,52.41,72.76,51.67,72.36L51.67,72.36z"/>
		</g>
	</g>
	<g>
		<path class="st2" d="M61.13,35.23h-21.6c-0.76,0-1.37-0.61-1.37-1.37V22.12c0-0.76,0.61-1.37,1.37-1.37h21.6
			c0.76,0,1.37,0.61,1.37,1.37v11.74C62.51,34.62,61.89,35.23,61.13,35.23z"/>
		<line class="st3" x1="38.77" y1="20.97" x2="50.5" y2="28.92"/>
		<line class="st3" x1="62.11" y1="21.4" x2="50.34" y2="28.81"/>
	</g>
	<g>
		<path d="M41.42,63.05l-1.97,0.93c-2.32,1.11-5.1,0.12-6.21-2.21l-8.72-18.33c-1.11-2.32-0.12-5.1,2.21-6.21l1.97-0.93
			c2.32-1.11,5.1-0.12,6.21,2.21l8.72,18.33C44.73,59.16,43.74,61.94,41.42,63.05z"/>
		<ellipse transform="matrix(0.9031 -0.4295 0.4295 0.9031 -19.2003 18.2673)" cx="30.87" cy="51.67" rx="4.35" ry="13.57"/>
		
			<rect x="33.62" y="33.18" transform="matrix(0.9031 -0.4295 0.4295 0.9031 -16.8691 21.2343)" class="st0" width="9.96" height="29.62"/>
		<path class="st0" d="M39.63,56.68l-1.25,0.59c-1.77,0.84-3.88,0.09-4.72-1.68l-4.13-8.68c-0.84-1.77-0.09-3.88,1.68-4.72
			l1.25-0.59c1.77-0.84,3.88-0.09,4.72,1.68l4.13,8.68C42.14,53.73,41.39,55.84,39.63,56.68z"/>
		<rect x="29.68" y="35.53" transform="matrix(0.9031 -0.4295 0.4295 0.9031 -13.6261 17.0867)" width="2.72" height="6.4"/>
		<path d="M34.15,40.79l-1.27,0.61c-0.72,0.34-1.57,0.04-1.91-0.68l-1.51-3.18c-0.34-0.72-0.04-1.57,0.68-1.91l1.27-0.61
			c0.72-0.34,1.57-0.04,1.91,0.68l1.51,3.18C35.17,39.59,34.87,40.45,34.15,40.79z"/>
		<path d="M44.9,61.25l-1.27,0.61c-0.72,0.34-1.57,0.04-1.91-0.68L40.2,58c-0.34-0.72-0.04-1.57,0.68-1.91l1.27-0.61
			c0.72-0.34,1.57-0.04,1.91,0.68l1.51,3.18C45.92,60.05,45.62,60.91,44.9,61.25z"/>
		<rect x="40" y="56.2" transform="matrix(0.9031 -0.4295 0.4295 0.9031 -21.5038 23.5221)" width="2.72" height="6.4"/>
	</g>
	<g>
		
			<ellipse transform="matrix(0.0588 -0.9983 0.9983 0.0588 -4.0235 116.551)" class="st4" cx="59.8" cy="60.41" rx="2.89" ry="10.5"/>
		<path class="st4" d="M68.71,54.06"/>
		<g>
			<g>
				<path class="st5" d="M67.47,46.81c-0.08,1.41-0.64,2.68-1.52,3.69l-6.02,10.16c-0.09,0.15-0.33,0.14-0.41-0.02l-5.08-11.51
					l-0.26-0.59c-0.05-0.12-0.09-0.25-0.13-0.38c-0.21-0.68-0.31-1.4-0.26-2.15c0.21-3.56,3.44-6.25,7.23-6.02
					C64.79,40.21,67.68,43.26,67.47,46.81z"/>
			</g>
			
				<ellipse transform="matrix(0.0588 -0.9983 0.9983 0.0588 10.8577 104.0909)" class="st0" cx="60.63" cy="46.29" rx="2.63" ry="2.72"/>
		</g>
	</g>
</g>
</svg>
