<?xml version="1.0" encoding="utf-8"?>
<!-- Generator: Adobe Illustrator 24.1.1, SVG Export Plug-In . SVG Version: 6.00 Build 0)  -->
<svg version="1.1" id="Layer_1" xmlns="http://www.w3.org/2000/svg" xmlns:xlink="http://www.w3.org/1999/xlink" x="0px" y="0px"
	 viewBox="0 0 100 50" style="enable-background:new 0 0 100 50;" xml:space="preserve">
<style type="text/css">
	.st0{fill:#241E2F;}
	.st1{fill:#FFFFFF;}
	.st2{fill:#241E2F;stroke:#FFFFFF;stroke-width:0.5;stroke-miterlimit:10;}
	.st3{fill:none;stroke:#FFFFFF;stroke-width:0.5;stroke-miterlimit:10;}
	.st4{font-family:'MyriadPro-Regular';}
	.st5{font-size:5.2776px;}
</style>
<g>
	<polygon class="st0" points="27.72,48.7 7.39,36.52 7.01,12.82 26.96,1.3 47.29,13.48 47.67,37.18 	"/>
	<g>
		<ellipse class="st1" cx="15.1" cy="29.22" rx="1.26" ry="1.7"/>
		<g>
			<path class="st1" d="M16.48,31.76h-2.93c-0.6,0-1.15,0.34-1.55,0.89c-0.4,0.55-0.64,1.31-0.64,2.15c0,0.58,0.12,1.12,0.33,1.58
				c0.04,0,0.08-0.01,0.12-0.01c0.05,0,0.1,0.01,0.16,0.01c0.07-0.01,0.14-0.01,0.21-0.01c0.06,0,0.11,0.01,0.16,0.01
				c0.03,0,0.06-0.01,0.09-0.01c0.02,0,0.03,0,0.04,0c0.08-0.01,0.16-0.02,0.24-0.02c0.09,0,0.17,0.01,0.25,0.02
				c0.07-0.01,0.13-0.02,0.2-0.02c0.08,0,0.15,0.01,0.23,0.02c0.04,0,0.09-0.01,0.13-0.01c0.03,0,0.05,0.01,0.08,0.01
				c0.05,0,0.1-0.01,0.15-0.01c0.06,0,0.11,0.01,0.16,0.02c0.09-0.01,0.17-0.02,0.27-0.02c0.03,0,0.05,0,0.08,0.01
				c0.07-0.01,0.13-0.01,0.2-0.01c0.05,0,0.1,0.01,0.15,0.01c0.02,0,0.03,0,0.05,0c0.02,0,0.04,0.01,0.06,0.01
				c0.03,0,0.06-0.01,0.09-0.01c0.1,0,0.2,0.01,0.29,0.02c0.05-0.01,0.11-0.02,0.17-0.02c0.03,0,0.06,0.01,0.1,0.01
				c0.07-0.01,0.13-0.01,0.21-0.01c0.08,0,0.15,0.01,0.22,0.01c0.01,0,0.01,0,0.02,0c0.03,0,0.05,0,0.07,0.01
				c0.03,0,0.05-0.01,0.07-0.01c0.04,0,0.07,0.01,0.11,0.01c0.03,0,0.06-0.01,0.1-0.01c0.05,0,0.09,0.01,0.14,0.01
				c0.07-0.01,0.14-0.02,0.21-0.02c0.02,0,0.05,0,0.07,0c0.06-0.01,0.12-0.01,0.18-0.01c0.06,0,0.12,0.01,0.18,0.01
				c0.05,0,0.1-0.01,0.15-0.01c0.08,0,0.15,0.01,0.23,0.02c0.06-0.01,0.11-0.01,0.17-0.01c0.06,0,0.11,0.01,0.17,0.01
				c0.01,0,0.01,0,0.02,0c0.01,0,0.02,0,0.02,0c0.11-0.02,0.21-0.03,0.33-0.03c0.1,0,0.2,0.01,0.3,0.03c0.2-0.46,0.33-1,0.33-1.58
				C18.66,33.12,17.69,31.76,16.48,31.76z"/>
			<g id="XMLID_1_">
				<g>
					<path class="st1" d="M18.66,34.69v1.66h-0.54c-0.03,0-0.05-0.01-0.09-0.01c-0.03,0-0.06,0.01-0.09,0.01h-6.61v-1.66H18.66z"/>
				</g>
				<g>
				</g>
			</g>
		</g>
		<polygon class="st0" points="15.1,34.05 14.05,31.74 16.15,31.74 		"/>
	</g>
	<g>
		<ellipse class="st1" cx="27.44" cy="11.2" rx="1.26" ry="1.7"/>
		<g>
			<path class="st1" d="M28.82,13.74h-2.93c-0.6,0-1.15,0.34-1.55,0.89c-0.4,0.55-0.64,1.31-0.64,2.15c0,0.58,0.12,1.12,0.33,1.58
				c0.04,0,0.08-0.01,0.12-0.01c0.05,0,0.1,0.01,0.16,0.01c0.07-0.01,0.14-0.01,0.21-0.01c0.06,0,0.11,0.01,0.16,0.01
				c0.03,0,0.06-0.01,0.09-0.01c0.02,0,0.03,0,0.04,0c0.08-0.01,0.16-0.02,0.24-0.02c0.09,0,0.17,0.01,0.25,0.02
				c0.07-0.01,0.13-0.02,0.2-0.02c0.08,0,0.15,0.01,0.23,0.02c0.04,0,0.09-0.01,0.13-0.01c0.03,0,0.05,0.01,0.08,0.01
				c0.05,0,0.1-0.01,0.15-0.01c0.06,0,0.11,0.01,0.16,0.02c0.09-0.01,0.17-0.02,0.27-0.02c0.03,0,0.05,0,0.08,0.01
				c0.07-0.01,0.13-0.01,0.2-0.01c0.05,0,0.1,0.01,0.15,0.01c0.02,0,0.03,0,0.05,0c0.02,0,0.04,0.01,0.06,0.01
				c0.03,0,0.06-0.01,0.09-0.01c0.1,0,0.2,0.01,0.29,0.02c0.05-0.01,0.11-0.02,0.17-0.02c0.03,0,0.06,0.01,0.1,0.01
				c0.07-0.01,0.13-0.01,0.21-0.01c0.08,0,0.15,0.01,0.22,0.01c0.01,0,0.01,0,0.02,0c0.03,0,0.05,0,0.07,0.01
				c0.03,0,0.05-0.01,0.07-0.01c0.04,0,0.07,0.01,0.11,0.01c0.03,0,0.06-0.01,0.1-0.01c0.05,0,0.09,0.01,0.14,0.01
				c0.07-0.01,0.14-0.02,0.21-0.02c0.02,0,0.05,0,0.07,0c0.06-0.01,0.12-0.01,0.18-0.01c0.06,0,0.12,0.01,0.18,0.01
				c0.05,0,0.1-0.01,0.15-0.01c0.08,0,0.15,0.01,0.23,0.02c0.06-0.01,0.11-0.01,0.17-0.01c0.06,0,0.11,0.01,0.17,0.01
				c0.01,0,0.01,0,0.02,0c0.01,0,0.02,0,0.02,0c0.11-0.02,0.21-0.03,0.33-0.03c0.1,0,0.2,0.01,0.3,0.03c0.2-0.46,0.33-1,0.33-1.58
				C31,15.1,30.03,13.74,28.82,13.74z"/>
			<g id="XMLID_2_">
				<g>
					<path class="st1" d="M23.68,16.67H31v1.66h-0.54c-0.03,0-0.05-0.01-0.09-0.01s-0.06,0.01-0.09,0.01h-6.61V16.67z"/>
				</g>
				<g>
				</g>
			</g>
		</g>
		<polygon class="st0" points="27.44,16.03 26.39,13.72 28.49,13.72 		"/>
	</g>
	<g>
		<ellipse class="st1" cx="39.65" cy="29.03" rx="1.26" ry="1.7"/>
		<g>
			<path class="st1" d="M41.03,31.57h-2.93c-0.6,0-1.15,0.34-1.55,0.89c-0.4,0.55-0.64,1.31-0.64,2.15c0,0.58,0.12,1.12,0.33,1.58
				c0.04,0,0.08-0.01,0.12-0.01c0.05,0,0.1,0.01,0.16,0.01c0.07-0.01,0.14-0.01,0.21-0.01c0.06,0,0.11,0.01,0.16,0.01
				c0.03,0,0.06-0.01,0.09-0.01c0.02,0,0.03,0,0.04,0c0.08-0.01,0.16-0.02,0.24-0.02c0.09,0,0.17,0.01,0.25,0.02
				c0.07-0.01,0.13-0.02,0.2-0.02c0.08,0,0.15,0.01,0.23,0.02c0.04,0,0.09-0.01,0.13-0.01c0.03,0,0.05,0.01,0.08,0.01
				c0.05,0,0.1-0.01,0.15-0.01c0.06,0,0.11,0.01,0.16,0.02c0.09-0.01,0.17-0.02,0.27-0.02c0.03,0,0.05,0,0.08,0.01
				c0.07-0.01,0.13-0.01,0.2-0.01c0.05,0,0.1,0.01,0.15,0.01c0.02,0,0.03,0,0.05,0c0.02,0,0.04,0.01,0.06,0.01
				c0.03,0,0.06-0.01,0.09-0.01c0.1,0,0.2,0.01,0.29,0.02c0.05-0.01,0.11-0.02,0.17-0.02c0.03,0,0.06,0.01,0.1,0.01
				c0.07-0.01,0.13-0.01,0.21-0.01c0.08,0,0.15,0.01,0.22,0.01c0.01,0,0.01,0,0.02,0c0.03,0,0.05,0,0.07,0.01
				c0.03,0,0.05-0.01,0.07-0.01c0.04,0,0.07,0.01,0.11,0.01c0.03,0,0.06-0.01,0.1-0.01c0.05,0,0.09,0.01,0.14,0.01
				c0.07-0.01,0.14-0.02,0.21-0.02c0.02,0,0.05,0,0.07,0c0.06-0.01,0.12-0.01,0.18-0.01c0.06,0,0.12,0.01,0.18,0.01
				c0.05,0,0.1-0.01,0.15-0.01c0.08,0,0.15,0.01,0.23,0.02c0.06-0.01,0.11-0.01,0.17-0.01c0.06,0,0.11,0.01,0.17,0.01
				c0.01,0,0.01,0,0.02,0c0.01,0,0.02,0,0.02,0c0.11-0.02,0.21-0.03,0.33-0.03c0.1,0,0.2,0.01,0.3,0.03c0.2-0.46,0.33-1,0.33-1.58
				C43.21,32.93,42.23,31.57,41.03,31.57z"/>
			<g id="XMLID_3_">
				<g>
					<path class="st1" d="M35.89,34.5h7.33v1.66h-0.54c-0.03,0-0.05-0.01-0.09-0.01s-0.06,0.01-0.09,0.01h-6.61V34.5z"/>
				</g>
				<g>
				</g>
			</g>
		</g>
		<polygon class="st0" points="39.65,33.85 38.6,31.55 40.7,31.55 		"/>
	</g>
	<path class="st2" d="M33.04,29.83h-11.4c-0.28,0-0.51-0.23-0.51-0.51v-6.89c0-0.28,0.23-0.51,0.51-0.51h11.4
		c0.28,0,0.51,0.23,0.51,0.51v6.89C33.55,29.6,33.32,29.83,33.04,29.83z"/>
	<line class="st3" x1="27.44" y1="29.91" x2="27.44" y2="32.21"/>
	<line class="st3" x1="24.91" y1="32.51" x2="29.77" y2="32.51"/>
	<text transform="matrix(0.9043 0 0 1 23.6775 27.8002)" class="st1 st4 st5">&lt;/&gt;</text>
</g>
<g>
	<g>
		<path class="st0" d="M49.72,19.61h0.84v0.84h-0.84V19.61z M49.72,21.72h0.84v6.08h-0.84V21.72z"/>
		<path class="st0" d="M51.98,21.72h0.84v6.08h-0.84V21.72z M54.85,23.51c0-0.37-0.08-0.65-0.25-0.83s-0.42-0.28-0.76-0.28
			s-0.59,0.1-0.76,0.3s-0.25,0.51-0.25,0.92l-0.12-0.88c0.14-0.38,0.33-0.66,0.57-0.85s0.53-0.28,0.87-0.28
			c0.52,0,0.91,0.16,1.16,0.47s0.38,0.79,0.38,1.42v4.29h-0.84V23.51z"/>
		<path class="st0" d="M56.98,21.72h0.84v6.08h-0.84V21.72z M59.86,23.51c0-0.37-0.08-0.65-0.25-0.83s-0.42-0.28-0.76-0.28
			s-0.59,0.1-0.76,0.3s-0.25,0.51-0.25,0.92l-0.12-0.88c0.14-0.38,0.33-0.66,0.57-0.85s0.53-0.28,0.87-0.28
			c0.52,0,0.91,0.16,1.16,0.47s0.38,0.79,0.38,1.42v4.29h-0.84V23.51z"/>
		<path class="st0" d="M62.67,27.68c-0.26-0.14-0.46-0.34-0.6-0.61s-0.21-0.58-0.21-0.96v-2.77c0-0.37,0.07-0.68,0.21-0.94
			s0.34-0.46,0.6-0.59s0.58-0.21,0.94-0.21s0.68,0.07,0.94,0.21s0.46,0.33,0.6,0.59s0.21,0.57,0.21,0.94v2.78
			c0,0.37-0.07,0.68-0.21,0.95s-0.34,0.46-0.6,0.6s-0.58,0.21-0.94,0.21S62.94,27.82,62.67,27.68z M64.28,26.85
			c0.16-0.17,0.24-0.41,0.24-0.71v-2.78c0-0.3-0.08-0.54-0.24-0.7s-0.38-0.25-0.67-0.25s-0.51,0.08-0.66,0.25s-0.23,0.4-0.23,0.7
			v2.78c0,0.31,0.08,0.55,0.23,0.71s0.38,0.25,0.66,0.25C63.9,27.1,64.12,27.02,64.28,26.85z"/>
		<path class="st0" d="M68.92,19.28h0.7l1.16,7.56l0.92-7.56h0.89l-1.26,8.52h-1.16l-0.87-6.25l-0.94,6.25h-1.16l-1.26-8.52h0.89
			l0.92,7.56L68.92,19.28z"/>
		<path class="st0" d="M73.24,19.28h0.84v8.52h-0.84V19.28z M73.82,19.28h3.08v0.79h-3.08V19.28z M73.82,23.18h2.78v0.79h-2.78
			V23.18z M73.82,27.01h3.08v0.79h-3.08V27.01z"/>
		<path class="st0" d="M77.77,19.28h0.84v8.52h-0.84V19.28z M78.48,27.01h1.66c0.25,0,0.45-0.06,0.59-0.19s0.21-0.31,0.21-0.54
			v-1.51c0-0.21-0.04-0.4-0.11-0.56s-0.18-0.28-0.31-0.36s-0.28-0.12-0.44-0.12h-1.6v-0.79h1.6c0.24,0,0.42-0.08,0.55-0.25
			s0.2-0.39,0.2-0.69v-1.22c0-0.23-0.07-0.41-0.2-0.54s-0.31-0.19-0.54-0.19h-1.61v-0.79h1.58c0.34,0,0.63,0.06,0.87,0.17
			s0.42,0.28,0.55,0.5s0.19,0.48,0.19,0.79v1.14c0,0.27-0.03,0.51-0.09,0.71s-0.15,0.38-0.27,0.51s-0.26,0.22-0.43,0.27
			c0.19,0.04,0.35,0.13,0.49,0.26s0.24,0.31,0.31,0.53s0.11,0.47,0.11,0.76v1.36c0,0.32-0.06,0.59-0.18,0.81s-0.3,0.4-0.53,0.51
			s-0.51,0.18-0.85,0.18h-1.74V27.01z"/>
		<path class="st0" d="M82.4,21.72h2.63v0.79H82.4V21.72z M83.37,27.42c-0.23-0.27-0.34-0.67-0.34-1.2v-6.27h0.84v6.28
			c0,0.26,0.06,0.46,0.18,0.6s0.29,0.21,0.52,0.21h0.46v0.79h-0.57C83.96,27.83,83.59,27.69,83.37,27.42z"/>
		<path class="st0" d="M86.14,19.61h0.84v0.84h-0.84V19.61z M86.14,21.72h0.84v6.08h-0.84V21.72z"/>
		<path class="st0" d="M89.08,27.68c-0.26-0.14-0.46-0.34-0.6-0.61s-0.21-0.58-0.21-0.96v-2.77c0-0.37,0.07-0.68,0.21-0.94
			s0.34-0.46,0.6-0.59s0.58-0.21,0.94-0.21s0.68,0.07,0.94,0.21s0.46,0.33,0.6,0.59s0.21,0.57,0.21,0.94v2.78
			c0,0.37-0.07,0.68-0.21,0.95s-0.34,0.46-0.6,0.6s-0.58,0.21-0.94,0.21S89.34,27.82,89.08,27.68z M90.69,26.85
			c0.16-0.17,0.24-0.41,0.24-0.71v-2.78c0-0.3-0.08-0.54-0.24-0.7s-0.38-0.25-0.67-0.25s-0.51,0.08-0.66,0.25s-0.23,0.4-0.23,0.7
			v2.78c0,0.31,0.08,0.55,0.23,0.71s0.38,0.25,0.66,0.25C90.31,27.1,90.53,27.02,90.69,26.85z"/>
		<path class="st0" d="M92.94,21.72h0.84v6.08h-0.84V21.72z M95.81,23.51c0-0.37-0.08-0.65-0.25-0.83s-0.42-0.28-0.76-0.28
			s-0.59,0.1-0.76,0.3s-0.25,0.51-0.25,0.92l-0.12-0.88c0.14-0.38,0.33-0.66,0.57-0.85s0.53-0.28,0.87-0.28
			c0.52,0,0.91,0.16,1.16,0.47s0.38,0.79,0.38,1.42v4.29h-0.84V23.51z"/>
	</g>
</g>
</svg>
