<?xml version="1.0" encoding="utf-8"?>
<!-- Generator: Adobe Illustrator 24.1.1, SVG Export Plug-In . SVG Version: 6.00 Build 0)  -->
<svg version="1.1" id="Layer_1" xmlns="http://www.w3.org/2000/svg" xmlns:xlink="http://www.w3.org/1999/xlink" x="0px" y="0px"
	 viewBox="0 0 100 100" style="enable-background:new 0 0 100 100;" xml:space="preserve">
<style type="text/css">
	.st0{fill:#FFFFFF;}
	.st1{stroke:#FFFFFF;stroke-miterlimit:10;}
	.st2{fill:none;stroke:#FFFFFF;stroke-width:0.5;stroke-miterlimit:10;}
</style>
<g>
	<g>
		<path class="st0" d="M21.64,94.71c1.93,0,1.93-3,0-3C19.71,91.71,19.7,94.71,21.64,94.71L21.64,94.71z"/>
	</g>
</g>
<g>
	<g>
		<path class="st0" d="M21.13,94.54c1.93,0,1.93-3,0-3C19.2,91.54,19.19,94.54,21.13,94.54L21.13,94.54z"/>
	</g>
</g>
<g>
	<g>
		<path class="st0" d="M14.24,95.87c0.63,0.32,1.18,0.76,1.79,1.11c0.34,0.19,0.77,0.26,1.16,0.15c0.2-0.05,0.37-0.14,0.51-0.27
			c0.16-0.11,0.29-0.25,0.39-0.42c0.18-0.35,0.28-0.77,0.15-1.16c-0.12-0.37-0.34-0.7-0.69-0.9c-0.61-0.34-1.16-0.79-1.79-1.11
			c-0.17-0.11-0.36-0.17-0.56-0.18c-0.2-0.04-0.4-0.04-0.6,0.03c-0.2,0.05-0.37,0.14-0.51,0.27c-0.16,0.11-0.29,0.25-0.39,0.42
			c-0.18,0.35-0.28,0.77-0.15,1.16C13.67,95.33,13.9,95.69,14.24,95.87L14.24,95.87z"/>
	</g>
</g>
<g>
	<g>
		<path class="st0" d="M13.7,93.46c0.98,1.44,1.88,2.8,3.51,3.61c0.77,0.38,1.41,0.72,2.29,0.75c1.05,0.03,2.09,0.11,3.14,0.21
			c4.22,0.38,8.46,1.06,12.7,1.11c1.93,0.02,1.93-2.98,0-3c-3.72-0.04-7.44-0.59-11.13-0.96c-0.91-0.09-1.83-0.18-2.74-0.25
			c-0.61-0.05-1.59,0.02-2.04-0.11c-1.51-0.42-2.32-1.69-3.13-2.88C15.21,90.36,12.61,91.86,13.7,93.46L13.7,93.46z"/>
	</g>
</g>
<g>
	<g>
		<path class="st0" d="M47.03,75.99c1.93,0,1.93-3,0-3C45.1,72.99,45.1,75.99,47.03,75.99L47.03,75.99z"/>
	</g>
</g>
<g>
	<g>
		<path class="st0" d="M45.93,75.33c0.17,0.31,0.45,0.51,0.74,0.68c0.06,0.04,0.11,0.08,0.17,0.12c0.16,0.11,0.37,0.17,0.56,0.23
			c-0.12-0.05-0.24-0.1-0.36-0.15c0.18,0.08,0.35,0.16,0.54,0.23c-0.12-0.05-0.24-0.1-0.36-0.15c0.13,0.06,0.25,0.14,0.37,0.21
			c0.21,0.12,0.43,0.21,0.66,0.3c-0.12-0.05-0.24-0.1-0.36-0.15c0.21,0.09,0.43,0.19,0.64,0.28c-0.12-0.05-0.24-0.1-0.36-0.15
			c0.42,0.21,0.8,0.33,1.27,0.34c0.75,0.02,1.38-0.59,1.47-1.3c0.1-0.72-0.35-1.46-1.07-1.65c-0.05-0.01-0.11-0.03-0.16-0.04
			c0.12,0.05,0.24,0.1,0.36,0.15c-0.02-0.01-0.03-0.02-0.05-0.02c0.1,0.08,0.2,0.16,0.3,0.23c-0.19-0.15-0.35-0.33-0.58-0.43
			c-0.25-0.11-0.49-0.18-0.74-0.27c0.12,0.05,0.24,0.1,0.36,0.15c-0.46-0.2-0.88-0.45-1.35-0.62c0.12,0.05,0.24,0.1,0.36,0.15
			c-0.2-0.09-0.39-0.2-0.61-0.26c0.12,0.05,0.24,0.1,0.36,0.15c-0.15-0.08-0.27-0.16-0.43-0.22c-0.3-0.13-0.45-0.16-0.8-0.19
			c-0.35-0.04-0.68-0.02-1.03,0.05c0.13-0.02,0.27-0.04,0.4-0.05c-0.41,0.05-0.82,0.05-1.17,0.32c-0.32,0.25-0.58,0.49-0.69,0.9
			c-0.1,0.36-0.05,0.84,0.15,1.16c0.21,0.32,0.51,0.6,0.9,0.69c0.36,0.08,0.84,0.09,1.16-0.15c0.04-0.03,0.08-0.05,0.12-0.07
			c-0.12,0.05-0.24,0.1-0.36,0.15c0.03-0.01,0.06-0.02,0.09-0.03c-0.13,0.02-0.27,0.04-0.4,0.05c0.23-0.03,0.46-0.05,0.69-0.08
			c-0.13,0.02-0.27,0.04-0.4,0.05c0.18-0.01,0.35,0,0.53,0.02c-0.13-0.02-0.27-0.04-0.4-0.05c0.08,0.01,0.15,0.03,0.22,0.07
			c-0.12-0.05-0.24-0.1-0.36-0.15c0.24,0.11,0.44,0.27,0.71,0.32c-0.12-0.05-0.24-0.1-0.36-0.15c0.22,0.12,0.45,0.21,0.68,0.3
			c-0.12-0.05-0.24-0.1-0.36-0.15c0.21,0.09,0.42,0.2,0.62,0.31c0.3,0.16,0.62,0.25,0.93,0.37c-0.12-0.05-0.24-0.1-0.36-0.15
			c0.05,0.02,0.1,0.04,0.15,0.07c-0.1-0.08-0.2-0.16-0.3-0.23c0.15,0.14,0.22,0.24,0.43,0.36c0.18,0.1,0.38,0.16,0.57,0.22
			c0.13-0.98,0.27-1.96,0.4-2.95c-0.04,0-0.09,0-0.13,0c0.13,0.02,0.27,0.04,0.4,0.05c-0.1-0.02-0.19-0.05-0.29-0.08
			c0.12,0.05,0.24,0.1,0.36,0.15c-0.18-0.09-0.38-0.17-0.57-0.25c0.12,0.05,0.24,0.1,0.36,0.15c-0.21-0.1-0.42-0.19-0.63-0.27
			c0.12,0.05,0.24,0.1,0.36,0.15c-0.11-0.05-0.22-0.11-0.32-0.18c-0.21-0.13-0.4-0.21-0.64-0.31c0.12,0.05,0.24,0.1,0.36,0.15
			c-0.21-0.1-0.43-0.18-0.64-0.27c0.12,0.05,0.24,0.1,0.36,0.15c-0.13-0.07-0.26-0.16-0.38-0.24c0.1,0.08,0.2,0.16,0.3,0.23
			c-0.01-0.01-0.02-0.02-0.02-0.02c0.08,0.1,0.16,0.2,0.23,0.3c0-0.01-0.01-0.02-0.01-0.02c-0.18-0.33-0.54-0.59-0.9-0.69
			c-0.36-0.1-0.84-0.05-1.16,0.15C45.78,73.72,45.52,74.6,45.93,75.33L45.93,75.33z"/>
	</g>
</g>
<g>
	<g>
		<path class="st0" d="M49.64,75.55c0-0.04-0.01-0.08-0.01-0.13c-0.02,0.13-0.04,0.27-0.05,0.4c0-0.01,0-0.01,0-0.02
			c-0.05,0.12-0.1,0.24-0.15,0.36c0-0.01,0.01-0.02,0.01-0.02c-0.18,0.18-0.36,0.36-0.54,0.54c0.01,0,0.01-0.01,0.02-0.01
			c-0.12,0.05-0.24,0.1-0.36,0.15c0.01,0,0.01,0,0.02-0.01c-0.13,0.02-0.27,0.04-0.4,0.05c0.04,0,0.07,0,0.1,0
			c-0.13-0.02-0.27-0.04-0.4-0.05c0.01,0,0.02,0,0.03,0.01c-0.12-0.05-0.24-0.1-0.36-0.15c0.09,0.05,0.15,0.08,0.25,0.12
			c0.11,0.05,0.19,0.08,0.3,0.1c0.1,0.02,0.2,0.06,0.3,0.1c-0.12-0.05-0.24-0.1-0.36-0.15c0.21,0.1,0.42,0.18,0.63,0.27
			c-0.12-0.05-0.24-0.1-0.36-0.15c0.19,0.09,0.38,0.19,0.59,0.24c0.04,0.01,0.07,0.03,0.11,0.04c0.16,0.05,0.35,0.06,0.52,0.07
			c-0.13-0.02-0.27-0.04-0.4-0.05c0.01,0,0.02,0,0.03,0.01c-0.12-0.05-0.24-0.1-0.36-0.15c0.14,0.08,0.3,0.15,0.45,0.19
			c0.24,0.06,0.31,0.04,0.49,0.05c-0.13-0.02-0.27-0.04-0.4-0.05c0.38,0.07,0.81,0.16,1.2,0.04c0.12-0.05,0.24-0.1,0.36-0.15
			c0.1-0.08,0.2-0.16,0.3-0.23c0.08-0.1,0.16-0.2,0.23-0.3c0.11-0.17,0.17-0.36,0.18-0.56c0.04-0.13,0.04-0.27,0-0.4
			c0-0.14-0.03-0.26-0.1-0.38c-0.04-0.13-0.1-0.24-0.19-0.33c-0.11-0.16-0.25-0.29-0.42-0.39c-0.33-0.23-0.75-0.31-1.14-0.34
			c0.13,0.02,0.27,0.04,0.4,0.05c-0.21-0.05-0.41-0.08-0.63-0.11c0.13,0.02,0.27,0.04,0.4,0.05c-0.02,0-0.04-0.01-0.06-0.02
			c0.22,0.13,0.44,0.26,0.66,0.39c-0.01,0-0.01-0.01-0.02-0.01c0.08,0.1,0.16,0.2,0.23,0.3c0-0.01-0.01-0.01-0.01-0.02
			c0.05,0.12,0.1,0.24,0.15,0.36c0-0.01,0-0.02,0-0.02c0,0.27,0,0.53,0,0.8c0-0.01,0-0.01,0-0.02c-0.13,0.22-0.26,0.44-0.39,0.66
			c0,0,0.01-0.01,0.01-0.01c-0.1,0.08-0.2,0.16-0.3,0.23c0.01,0,0.01-0.01,0.02-0.01c-0.12,0.05-0.24,0.1-0.36,0.15
			c0.01,0,0.01,0,0.02,0c-0.13,0.02-0.27,0.04-0.4,0.05c0.08-0.01,0.16-0.01,0.25,0c-0.13-0.02-0.27-0.04-0.4-0.05
			c0.18,0.03,0.37,0.07,0.56,0.07c0.38,0.01,0.8-0.17,1.06-0.44c0.15-0.14,0.25-0.3,0.31-0.48c0.09-0.18,0.14-0.37,0.13-0.58
			c-0.02-0.39-0.14-0.79-0.44-1.06c-0.3-0.27-0.65-0.43-1.06-0.44c-0.02,0-0.04,0-0.06,0c0.13,0.02,0.27,0.04,0.4,0.05
			c-0.21-0.04-0.43-0.07-0.65-0.07c-0.02,0-0.05,0-0.07,0c-0.11,0.01-0.31,0.03-0.42,0.06c-0.11,0.03-0.28,0.1-0.38,0.16
			c-0.12,0.06-0.23,0.15-0.33,0.25c-0.05,0.05-0.09,0.1-0.12,0.16c-0.09,0.09-0.16,0.2-0.19,0.33c-0.1,0.23-0.07,0.14-0.11,0.4
			c-0.04,0.13-0.04,0.27,0,0.4c0.01,0.07,0.02,0.15,0.03,0.22c0.03,0.1,0.11,0.29,0.16,0.38c0.21,0.34,0.54,0.58,0.91,0.7
			c0.15,0.05,0.33,0.05,0.48,0.07c-0.13-0.02-0.27-0.04-0.4-0.05c0.05,0.01,0.09,0.02,0.14,0.03c0.18,0.05,0.36,0.07,0.54,0.08
			c-0.13-0.02-0.27-0.04-0.4-0.05c0.07,0.01,0.14,0.05,0.21,0.07c-0.12-0.05-0.24-0.1-0.36-0.15c0.03,0.02,0.06,0.03,0.09,0.05
			c0.12-0.91,0.24-1.83,0.36-2.74c-0.01,0-0.01,0-0.02,0.01c0.13-0.02,0.27-0.04,0.4-0.05c-0.07,0.01-0.15,0-0.22-0.01
			c0.13,0.02,0.27,0.04,0.4,0.05c-0.05-0.01-0.1-0.02-0.15-0.03c-0.16-0.04-0.34-0.05-0.51-0.06c0.13,0.02,0.27,0.04,0.4,0.05
			c-0.01,0-0.02,0-0.03,0c0.12,0.05,0.24,0.1,0.36,0.15c-0.14-0.07-0.28-0.15-0.44-0.19c-0.15-0.04-0.31-0.05-0.47-0.06
			c0.13,0.02,0.27,0.04,0.4,0.05c-0.05-0.01-0.09-0.03-0.14-0.04c-0.05-0.01-0.1-0.02-0.15-0.04c0.12,0.05,0.24,0.1,0.36,0.15
			c-0.19-0.09-0.39-0.17-0.59-0.25c0.12,0.05,0.24,0.1,0.36,0.15c-0.2-0.1-0.41-0.19-0.62-0.27c-0.1-0.04-0.21-0.05-0.31-0.08
			c0.12,0.05,0.24,0.1,0.36,0.15c-0.15-0.08-0.3-0.16-0.47-0.21c-0.27-0.08-0.65-0.07-0.91,0c-0.52,0.14-0.95,0.57-1.09,1.09
			c-0.06,0.21-0.06,0.36-0.05,0.54c0.02,0.4,0.15,0.77,0.44,1.06c0.14,0.15,0.3,0.25,0.48,0.31c0.18,0.09,0.37,0.14,0.58,0.13
			c0.39-0.02,0.79-0.14,1.06-0.44C49.46,76.33,49.66,75.95,49.64,75.55L49.64,75.55z"/>
	</g>
</g>
<g>
	<g>
		<path class="st0" d="M52.86,72.77c1.93,0,1.93-3,0-3C50.93,69.77,50.93,72.77,52.86,72.77L52.86,72.77z"/>
	</g>
</g>
<g>
	<g>
		<path class="st0" d="M52.59,72.58c1.93,0,1.93-3,0-3C50.66,69.58,50.65,72.58,52.59,72.58L52.59,72.58z"/>
	</g>
</g>
<g>
	<g>
		<path class="st0" d="M52.52,72.62c1.93,0,1.93-3,0-3C50.59,69.62,50.59,72.62,52.52,72.62L52.52,72.62z"/>
	</g>
</g>
<g>
	<g>
		<path class="st0" d="M52.17,69.23c-0.19-0.1-0.37-0.19-0.57-0.27c0.35,0.35,0.7,0.7,1.05,1.05c0-0.01-0.01-0.02-0.01-0.03
			c-0.35,0.62-0.7,1.23-1.05,1.85c0.01,0,0.01,0,0.02-0.01c-0.27,0-0.53,0-0.8,0c0.01,0,0.02,0,0.02,0.01
			c-0.12-0.05-0.24-0.1-0.36-0.15c0.01,0,0.02,0.01,0.03,0.01c-0.1-0.08-0.2-0.16-0.3-0.23c0.04,0.03,0.07,0.07,0.1,0.11
			c-0.08-0.1-0.16-0.2-0.23-0.3c0.37,0.49,0.83,1.03,1.47,1.14c-0.12-0.05-0.24-0.1-0.36-0.15c0.18,0.1,0.38,0.15,0.57,0.22
			c-0.12-0.05-0.24-0.1-0.36-0.15c0.37,0.16,0.58,0.25,1,0.25c0.1,0,0.21-0.02,0.32-0.01c-0.13-0.02-0.27-0.04-0.4-0.05
			c0.01,0,0.02,0.01,0.03,0.01c-0.3-0.23-0.6-0.46-0.9-0.69c0,0.01,0.01,0.02,0.01,0.03c-0.05-0.39-0.1-0.77-0.15-1.16
			c0,0.01-0.01,0.02-0.01,0.03c0.23-0.3,0.46-0.6,0.69-0.9c-0.01,0.01-0.02,0.01-0.03,0.02c0.12-0.05,0.24-0.1,0.36-0.15
			c-0.02,0.01-0.05,0.02-0.08,0.02c0.13-0.02,0.27-0.04,0.4-0.05c-0.05,0-0.1,0-0.15,0.01c0.13,0.02,0.27,0.04,0.4,0.05
			c-0.02,0-0.04-0.01-0.05-0.01c0.12,0.05,0.24,0.1,0.36,0.15c-0.05-0.02-0.09-0.05-0.13-0.07c0.1,0.08,0.2,0.16,0.3,0.23
			c-0.13-0.13-0.28-0.25-0.44-0.35c0.1,0.08,0.2,0.16,0.3,0.23c-0.22-0.19-0.47-0.37-0.77-0.43c0.12,0.05,0.24,0.1,0.36,0.15
			c-0.01,0-0.02-0.01-0.03-0.01c0.23,0.3,0.46,0.6,0.69,0.9c0-0.01-0.01-0.02-0.01-0.02c-0.23,0.56-0.46,1.13-0.69,1.69
			c0.01-0.01,0.02-0.01,0.03-0.02c-0.12,0.05-0.24,0.1-0.36,0.15c0.01,0,0.02-0.01,0.04-0.01c-0.13,0.02-0.27,0.04-0.4,0.05
			c0.03,0,0.06,0,0.08,0c-0.13-0.02-0.27-0.04-0.4-0.05c0.04,0.01,0.07,0.01,0.11,0.03c-0.22-0.13-0.44-0.26-0.66-0.39
			c0.01,0.01,0.02,0.01,0.03,0.02c-0.08-0.1-0.16-0.2-0.23-0.3c0.01,0.01,0.01,0.02,0.02,0.03c-0.05-0.12-0.1-0.24-0.15-0.36
			c0.01,0.02,0.02,0.05,0.02,0.07c-0.02-0.13-0.04-0.27-0.05-0.4c0,0.02,0,0.03,0.01,0.05c0.02-0.13,0.04-0.27,0.05-0.4
			c0,0.02-0.01,0.03-0.01,0.05c0.13-0.22,0.26-0.44,0.39-0.66c-0.01,0.01-0.02,0.02-0.03,0.03c0.22-0.13,0.44-0.26,0.66-0.39
			c-0.01,0-0.03,0.01-0.04,0.01c0.13-0.02,0.27-0.04,0.4-0.05c-0.01,0-0.03,0-0.04,0c0.13,0.02,0.27,0.04,0.4,0.05
			c-0.08-0.01-0.14-0.04-0.21-0.07c0.12,0.05,0.24,0.1,0.36,0.15c-0.19-0.09-0.38-0.18-0.58-0.23c0.12,0.05,0.24,0.1,0.36,0.15
			c-0.18-0.09-0.36-0.15-0.54-0.22c0.12,0.05,0.24,0.1,0.36,0.15c-0.24-0.11-0.49-0.2-0.74-0.3c0.12,0.05,0.24,0.1,0.36,0.15
			c-0.07-0.03-0.14-0.07-0.22-0.1c-0.13-0.06-0.28-0.14-0.41-0.17c-0.15-0.04-0.32-0.05-0.48-0.06c0.13,0.02,0.27,0.04,0.4,0.05
			c-0.23-0.07-0.41-0.1-0.67-0.14c0,1,0,2,0,3c0.04,0,0.09,0,0.13,0.01c-0.13-0.02-0.27-0.04-0.4-0.05
			c0.08,0.02,0.16,0.05,0.24,0.08c-0.12-0.05-0.24-0.1-0.36-0.15c0.26,0.12,0.52,0.21,0.79,0.3c-0.12-0.05-0.24-0.1-0.36-0.15
			c0.01,0.01,0.02,0.01,0.03,0.02c-0.1-0.08-0.2-0.16-0.3-0.23c0.01,0.01,0.02,0.01,0.02,0.02c-0.13-0.22-0.26-0.44-0.39-0.66
			c0,0.01,0.01,0.02,0.01,0.03c0.23-0.56,0.46-1.13,0.69-1.69c-0.01,0.01-0.03,0.01-0.04,0.02c0.25-0.07,0.5-0.14,0.76-0.2
			c-0.16,0.02-0.34,0-0.5,0c0.13,0.02,0.27,0.04,0.4,0.05c-0.11-0.02-0.21-0.07-0.31-0.1c-0.21-0.07-0.43-0.08-0.65-0.11
			c0.13,0.02,0.27,0.04,0.4,0.05c-0.17-0.03-0.33-0.08-0.49-0.15c0.12,0.05,0.24,0.1,0.36,0.15c-0.24-0.11-0.48-0.22-0.73-0.32
			c-0.24-0.1-0.48-0.12-0.74-0.14c0.13,0.02,0.27,0.04,0.4,0.05c-0.07-0.02-0.15-0.03-0.22-0.05c0.12,0.05,0.24,0.1,0.36,0.15
			c-0.01,0-0.02-0.01-0.02-0.01c0.18,0.18,0.36,0.36,0.54,0.54c0-0.01-0.01-0.02-0.01-0.02c0.07,0.25,0.14,0.5,0.2,0.76
			c0-0.01,0-0.02,0-0.03c0.04-0.78-0.72-1.53-1.5-1.5c-0.85,0.04-1.46,0.66-1.5,1.5c-0.04,0.68,0.48,1.35,1.14,1.52
			c0.24,0.06,0.48,0.11,0.73,0.11c-0.13-0.02-0.27-0.04-0.4-0.05c0.08,0.02,0.15,0.05,0.22,0.08c-0.12-0.05-0.24-0.1-0.36-0.15
			c0.28,0.12,0.55,0.25,0.83,0.36c0.28,0.11,0.57,0.13,0.86,0.17c-0.13-0.02-0.27-0.04-0.4-0.05c0.11,0.02,0.21,0.06,0.32,0.1
			c0.21,0.08,0.44,0.11,0.67,0.11c0.1,0,0.2,0,0.3,0c0.33,0,0.62-0.08,0.92-0.23c0.1-0.08,0.2-0.16,0.3-0.23
			c0.15-0.14,0.25-0.3,0.31-0.48c0.12-0.28,0.19-0.68,0.08-0.98c-0.11-0.28-0.19-0.5-0.42-0.71c-0.21-0.19-0.42-0.31-0.7-0.4
			c-0.11-0.04-0.21-0.06-0.32-0.1c0.12,0.05,0.24,0.1,0.36,0.15c-0.42-0.19-0.77-0.34-1.25-0.34c-0.78-0.01-1.54,0.7-1.5,1.5
			c0.02,0.39,0.14,0.79,0.44,1.06c0.1,0.08,0.2,0.16,0.3,0.23c0.23,0.14,0.49,0.2,0.76,0.2c0.02,0,0.04,0,0.05,0.01
			c-0.13-0.02-0.27-0.04-0.4-0.05c0.23,0.07,0.41,0.11,0.67,0.14c-0.13-0.02-0.27-0.04-0.4-0.05c0.02,0,0.03,0.01,0.05,0.01
			c-0.12-0.05-0.24-0.1-0.36-0.15c0.28,0.15,0.58,0.26,0.87,0.37c-0.12-0.05-0.24-0.1-0.36-0.15c0.2,0.09,0.4,0.17,0.61,0.25
			c-0.12-0.05-0.24-0.1-0.36-0.15c0.17,0.08,0.34,0.14,0.51,0.2c-0.12-0.05-0.24-0.1-0.36-0.15c0.35,0.18,0.72,0.33,1.12,0.32
			c0.85-0.02,1.62-0.73,1.58-1.61c-0.03-0.73-0.44-1.37-1.17-1.59c-0.46-0.14-1-0.1-1.41,0.15c-0.28,0.17-0.49,0.42-0.61,0.72
			c-0.12,0.29-0.18,0.67-0.08,0.98c0.19,0.54,0.56,0.97,1.14,1.1c-0.12-0.05-0.24-0.1-0.36-0.15c0.01,0.01,0.02,0.01,0.03,0.02
			c-0.1-0.08-0.2-0.16-0.3-0.23c0.13,0.11,0.26,0.21,0.4,0.3c-0.1-0.08-0.2-0.16-0.3-0.23c0.34,0.37,0.84,0.6,1.34,0.59
			c0.18,0,0.38-0.02,0.55-0.06c0.37-0.09,0.78-0.39,0.96-0.72c0.23-0.43,0.28-0.91,0.09-1.37c-0.18-0.44-0.53-0.76-0.98-0.9
			c-0.29-0.09-0.55-0.04-0.83-0.06c0.13,0.02,0.27,0.04,0.4,0.05c-0.04,0-0.07-0.01-0.1-0.02c0.12,0.05,0.24,0.1,0.36,0.15
			c-0.18-0.08-0.35-0.17-0.55-0.2c0.12,0.05,0.24,0.1,0.36,0.15c-0.17-0.08-0.34-0.17-0.52-0.2c0.12,0.05,0.24,0.1,0.36,0.15
			c-0.04-0.02-0.07-0.03-0.1-0.06c0.1,0.08,0.2,0.16,0.3,0.23c-0.11-0.08-0.23-0.18-0.31-0.29c0.08,0.1,0.16,0.2,0.23,0.3
			c-0.13-0.17-0.24-0.35-0.39-0.49c-0.41-0.4-0.98-0.55-1.54-0.41c-0.35,0.09-0.73,0.37-0.9,0.69c-0.18,0.33-0.3,0.79-0.15,1.16
			c0.13,0.34,0.26,0.58,0.55,0.81c0.17,0.13,0.35,0.22,0.56,0.29c-0.12-0.05-0.24-0.1-0.36-0.15c0.05,0.03,0.1,0.07,0.16,0.1
			c0.35,0.19,0.77,0.26,1.16,0.15c0.35-0.1,0.73-0.36,0.9-0.69C53.08,70.59,52.91,69.63,52.17,69.23L52.17,69.23z"/>
	</g>
</g>
<g>
	<path class="st1" d="M77.7,67.94H20.16c-0.76,0-1.37-0.61-1.37-1.37V33.23c0-0.76,0.61-1.37,1.37-1.37H77.7
		c0.76,0,1.37,0.61,1.37,1.37v33.33C79.07,67.32,78.45,67.94,77.7,67.94z"/>
	<line class="st2" x1="20.29" y1="32.41" x2="49.33" y2="52.23"/>
	<line class="st2" x1="78.08" y1="33.5" x2="48.93" y2="51.95"/>
</g>
</svg>
