<?xml version="1.0" encoding="utf-8"?>
<!-- Generator: Adobe Illustrator 24.1.1, SVG Export Plug-In . SVG Version: 6.00 Build 0)  -->
<svg version="1.1" id="Layer_1" xmlns="http://www.w3.org/2000/svg" xmlns:xlink="http://www.w3.org/1999/xlink" x="0px" y="0px"
	 viewBox="0 0 100 100" style="enable-background:new 0 0 100 100;" xml:space="preserve">
<style type="text/css">
	.st0{fill:#FFFFFF;}
</style>
<g>
	<g>
		<path class="st0" d="M21.64,94.71c1.93,0,1.93-3,0-3C19.71,91.71,19.7,94.71,21.64,94.71L21.64,94.71z"/>
	</g>
</g>
<g>
	<g>
		<path class="st0" d="M21.13,94.54c1.93,0,1.93-3,0-3C19.2,91.54,19.19,94.54,21.13,94.54L21.13,94.54z"/>
	</g>
</g>
<g>
	<g>
		<path class="st0" d="M14.24,95.87c0.63,0.32,1.18,0.76,1.79,1.11c0.34,0.19,0.77,0.26,1.16,0.15c0.2-0.05,0.37-0.14,0.51-0.27
			c0.16-0.11,0.29-0.25,0.39-0.42c0.18-0.35,0.28-0.77,0.15-1.16c-0.12-0.37-0.34-0.7-0.69-0.9c-0.61-0.34-1.16-0.79-1.79-1.11
			c-0.17-0.11-0.36-0.17-0.56-0.18c-0.2-0.04-0.4-0.04-0.6,0.03c-0.2,0.05-0.37,0.14-0.51,0.27c-0.16,0.11-0.29,0.25-0.39,0.42
			c-0.18,0.35-0.28,0.77-0.15,1.16C13.67,95.33,13.9,95.69,14.24,95.87L14.24,95.87z"/>
	</g>
</g>
<g>
	<g>
		<path class="st0" d="M13.7,93.46c0.98,1.44,1.88,2.8,3.51,3.61c0.77,0.38,1.41,0.72,2.29,0.75c1.05,0.03,2.09,0.11,3.14,0.21
			c4.22,0.38,8.46,1.06,12.7,1.11c1.93,0.02,1.93-2.98,0-3c-3.72-0.04-7.44-0.59-11.13-0.96c-0.91-0.09-1.83-0.18-2.74-0.25
			c-0.61-0.05-1.59,0.02-2.04-0.11c-1.51-0.42-2.32-1.69-3.13-2.88C15.21,90.36,12.61,91.86,13.7,93.46L13.7,93.46z"/>
	</g>
</g>
<g>
	<g>
		<g>
			<path class="st0" d="M52.29,87.74c1.93,0,1.93-3,0-3C50.36,84.74,50.36,87.74,52.29,87.74L52.29,87.74z"/>
		</g>
	</g>
	<g>
		<g>
			<path class="st0" d="M55.56,88.17c0-0.08-0.02-0.16-0.01-0.24c-0.02,0.13-0.04,0.27-0.05,0.4c0-0.01,0-0.02,0.01-0.03
				c-0.05,0.12-0.1,0.24-0.15,0.36c0.01-0.01,0.01-0.02,0.02-0.04c-0.08,0.1-0.16,0.2-0.23,0.3c0.01-0.01,0.02-0.02,0.02-0.02
				c-0.1,0.08-0.2,0.16-0.3,0.23c0.01,0,0.02-0.01,0.03-0.01c-0.12,0.05-0.24,0.1-0.36,0.15c0.01,0,0.02,0,0.03-0.01
				c-0.13,0.02-0.27,0.04-0.4,0.05c0.05,0,0.1,0,0.15,0c-0.13-0.02-0.27-0.04-0.4-0.05c0.01,0,0.02,0,0.03,0.01
				c-0.12-0.05-0.24-0.1-0.36-0.15c0.02,0.01,0.03,0.01,0.04,0.03c-0.1-0.08-0.2-0.16-0.3-0.23c0.27,0.22,0.52,0.4,0.86,0.49
				c0.13,0.03,0.25,0.06,0.37,0.11c-0.12-0.05-0.24-0.1-0.36-0.15c0.17,0.07,0.34,0.15,0.52,0.22c-0.12-0.05-0.24-0.1-0.36-0.15
				c0.08,0.04,0.15,0.09,0.23,0.13c0.17,0.1,0.37,0.17,0.56,0.24c-0.12-0.05-0.24-0.1-0.36-0.15c0.09,0.04,0.17,0.09,0.25,0.14
				c0.14,0.07,0.29,0.14,0.44,0.18c0.06,0.01,0.11,0.02,0.16,0.04c-0.12-0.05-0.24-0.1-0.36-0.15c0.16,0.07,0.32,0.16,0.5,0.21
				c0.17,0.05,0.36,0.05,0.54,0.07c-0.13-0.02-0.27-0.04-0.4-0.05c0.02,0,0.03,0.01,0.05,0.01c-0.12-0.05-0.24-0.1-0.36-0.15
				c0.33,0.22,0.68,0.25,1.06,0.28c-0.13-0.02-0.27-0.04-0.4-0.05c0.43,0.1,0.99,0.23,1.44,0.07c0.5-0.18,0.9-0.51,1.05-1.05
				c0.13-0.47,0.02-1.14-0.39-1.46c-0.14-0.11-0.27-0.22-0.42-0.32c-0.15-0.09-0.32-0.14-0.49-0.21c0.12,0.05,0.24,0.1,0.36,0.15
				c-0.17-0.08-0.34-0.18-0.52-0.22c-0.19-0.05-0.4-0.07-0.6-0.08c0.13,0.02,0.27,0.04,0.4,0.05c-0.26-0.07-0.49-0.11-0.77-0.15
				c0.13,0.02,0.27,0.04,0.4,0.05c-0.02,0-0.05-0.01-0.07-0.02c0.12,0.05,0.24,0.1,0.36,0.15c-0.01,0-0.02-0.01-0.03-0.01
				c0.1,0.08,0.2,0.16,0.3,0.23c-0.01-0.01-0.02-0.02-0.03-0.02c0.08,0.1,0.16,0.2,0.23,0.3c-0.01-0.01-0.01-0.02-0.02-0.03
				c0.05,0.12,0.1,0.24,0.15,0.36c0-0.01,0-0.02-0.01-0.04c0,0.27,0,0.53,0,0.8c0-0.01,0-0.02,0-0.03c-0.05,0.12-0.1,0.24-0.15,0.36
				c0-0.01,0.01-0.01,0.01-0.02c-0.18,0.18-0.36,0.36-0.54,0.54c0.01,0,0.01-0.01,0.02-0.01c-0.12,0.05-0.24,0.1-0.36,0.15
				c0.02-0.01,0.04-0.01,0.06-0.01c-0.13,0.02-0.27,0.04-0.4,0.05c0.13-0.01,0.26-0.01,0.38,0c-0.13-0.02-0.27-0.04-0.4-0.05
				c0.22,0.04,0.43,0.08,0.65,0.09c0.38,0.01,0.8-0.18,1.06-0.44c0.26-0.26,0.46-0.69,0.44-1.06c-0.04-0.83-0.66-1.47-1.5-1.5
				c-0.03,0-0.07,0-0.1-0.01c0.13,0.02,0.27,0.04,0.4,0.05c-0.27-0.05-0.54-0.09-0.82-0.09c-0.45,0-0.93,0.13-1.25,0.47
				c-0.19,0.21-0.32,0.44-0.4,0.71c-0.12,0.4-0.03,0.85,0.17,1.21c0.13,0.24,0.37,0.46,0.6,0.59c0.29,0.16,0.54,0.18,0.86,0.22
				c-0.13-0.02-0.27-0.04-0.4-0.05c0.08,0.01,0.15,0.03,0.23,0.06c0.2,0.06,0.41,0.08,0.63,0.09c-0.13-0.02-0.27-0.04-0.4-0.05
				c0.04,0,0.07,0.01,0.11,0.03c-0.12-0.05-0.24-0.1-0.36-0.15c0.19,0.09,0.39,0.17,0.58,0.25c-0.12-0.05-0.24-0.1-0.36-0.15
				c0.04,0.02,0.08,0.05,0.12,0.07c-0.1-0.08-0.2-0.16-0.3-0.23c0.01,0.01,0.02,0.02,0.04,0.03c0.22-0.84,0.44-1.67,0.66-2.51
				c-0.01,0-0.02,0.01-0.03,0.01c0.13-0.02,0.27-0.04,0.4-0.05c-0.11,0.01-0.24,0-0.35-0.01c0.13,0.02,0.27,0.04,0.4,0.05
				c-0.08-0.01-0.15-0.04-0.23-0.06c-0.19-0.05-0.38-0.05-0.57-0.06c0.13,0.02,0.27,0.04,0.4,0.05c-0.02,0-0.03-0.01-0.05-0.01
				c0.12,0.05,0.24,0.1,0.36,0.15c-0.16-0.09-0.24-0.15-0.47-0.22c-0.17-0.05-0.36-0.06-0.54-0.07c0.13,0.02,0.27,0.04,0.4,0.05
				c-0.03,0-0.07-0.01-0.1-0.02c0.12,0.05,0.24,0.1,0.36,0.15c-0.16-0.07-0.32-0.16-0.49-0.21c-0.06-0.02-0.12-0.03-0.18-0.04
				c0.12,0.05,0.24,0.1,0.36,0.15c-0.07-0.03-0.13-0.07-0.19-0.1c-0.17-0.09-0.35-0.16-0.53-0.22c0.12,0.05,0.24,0.1,0.36,0.15
				c-0.07-0.03-0.14-0.08-0.21-0.12c-0.17-0.1-0.36-0.17-0.54-0.24c0.12,0.05,0.24,0.1,0.36,0.15c-0.21-0.09-0.41-0.19-0.63-0.26
				c-0.1-0.03-0.2-0.04-0.3-0.08c0.12,0.05,0.24,0.1,0.36,0.15c-0.03-0.01-0.05-0.03-0.08-0.05c0.1,0.08,0.2,0.16,0.3,0.23
				c-0.12-0.1-0.24-0.2-0.37-0.28c-0.28-0.16-0.47-0.19-0.79-0.21c-0.33-0.02-0.65,0.05-0.94,0.21c-0.37,0.21-0.68,0.58-0.77,1
				c-0.05,0.22-0.05,0.42-0.04,0.63c0.02,0.39,0.16,0.78,0.44,1.06c0.26,0.26,0.69,0.46,1.06,0.44c0.39-0.02,0.79-0.14,1.06-0.44
				C55.38,88.94,55.58,88.57,55.56,88.17L55.56,88.17z"/>
		</g>
	</g>
	<g>
		<path d="M48.1,73.77l-3.47,0.09c-4.11,0.1-7.51-3.59-7.6-8.25l-0.71-36.73c-0.09-4.66,3.17-8.52,7.28-8.62l3.47-0.09
			c4.11-0.1,7.51,3.59,7.6,8.25l0.71,36.73C55.46,69.81,52.21,73.67,48.1,73.77z"/>
		<ellipse transform="matrix(0.9998 -0.0187 0.0187 0.9998 -0.8746 0.7593)" cx="40.18" cy="47.16" rx="6.95" ry="24.55"/>
		<polygon class="st0" points="62.32,73.42 46.42,73.81 45.39,20.22 61.29,19.82 		"/>
		<path class="st0" d="M49.66,61.93l-2.2,0.06c-3.12,0.08-5.71-2.73-5.78-6.27l-0.33-17.4c-0.07-3.54,2.41-6.47,5.53-6.55l2.2-0.06
			c3.12-0.08,5.71,2.73,5.78,6.27l0.33,17.4C55.26,58.92,52.78,61.85,49.66,61.93z"/>
		<polygon points="51.17,31.65 46.83,31.76 46.61,20.19 50.95,20.08 		"/>
		<path d="M52.08,31.63l-2.25,0.06c-1.27,0.03-2.31-1.11-2.34-2.54l-0.12-6.37c-0.03-1.44,0.98-2.62,2.24-2.66l2.25-0.06
			c1.27-0.03,2.31,1.11,2.34,2.54l0.12,6.37C54.35,30.41,53.35,31.6,52.08,31.63z"/>
		<path d="M54.35,73.39l-2.25,0.06c-1.27,0.03-2.31-1.11-2.34-2.54l-0.12-6.37c-0.03-1.44,0.98-2.62,2.24-2.66l2.25-0.06
			c1.27-0.03,2.31,1.11,2.34,2.54l0.12,6.37C56.62,72.17,55.62,73.36,54.35,73.39z"/>
		<polygon points="52.67,73.43 48.34,73.54 48.11,61.97 52.45,61.86 		"/>
	</g>
</g>
</svg>
